<svg class="rich-terminal" viewBox="0 0 1238 782.0" xmlns="http://www.w3.org/2000/svg">
    <!-- Generated with Rich https://www.textualize.io -->
    <style>

    @font-face {
        font-family: "Fira Code";
        src: local("FiraCode-Regular"),
                url("https://cdnjs.cloudflare.com/ajax/libs/firacode/6.2.0/woff2/FiraCode-Regular.woff2") format("woff2"),
                url("https://cdnjs.cloudflare.com/ajax/libs/firacode/6.2.0/woff/FiraCode-Regular.woff") format("woff");
        font-style: normal;
        font-weight: 400;
    }
    @font-face {
        font-family: "Fira Code";
        src: local("FiraCode-Bold"),
                url("https://cdnjs.cloudflare.com/ajax/libs/firacode/6.2.0/woff2/FiraCode-Bold.woff2") format("woff2"),
                url("https://cdnjs.cloudflare.com/ajax/libs/firacode/6.2.0/woff/FiraCode-Bold.woff") format("woff");
        font-style: bold;
        font-weight: 700;
    }

    .terminal-matrix {
        font-family: Fira Code, monospace;
        font-size: 20px;
        line-height: 24.4px;
        font-variant-east-asian: full-width;
    }

    .terminal-title {
        font-size: 18px;
        font-weight: bold;
        font-family: arial;
    }

    .terminal-r1 { fill: #c5c8c6 }
.terminal-r2 { fill: #e0e0e0 }
.terminal-r3 { fill: #a0a3a6 }
.terminal-r4 { fill: #c5c6c7 }
.terminal-r5 { fill: #e0e0e0;font-weight: bold }
.terminal-r6 { fill: #0053aa }
.terminal-r7 { fill: #98e024 }
.terminal-r8 { fill: #ddedf9;font-weight: bold }
.terminal-r9 { fill: #008000;font-weight: bold }
.terminal-r10 { fill: #999999 }
.terminal-r11 { fill: #008000 }
.terminal-r12 { fill: #00ffff }
.terminal-r13 { fill: #272727 }
.terminal-r14 { fill: #003054 }
.terminal-r15 { fill: #ffa62b;font-weight: bold }
.terminal-r16 { fill: #495259 }
    </style>

    <defs>
    <clipPath id="terminal-clip-terminal">
      <rect x="0" y="0" width="1219.0" height="731.0" />
    </clipPath>
    <clipPath id="terminal-line-0">
    <rect x="0" y="1.5" width="1220" height="24.65"/>
            </clipPath>
<clipPath id="terminal-line-1">
    <rect x="0" y="25.9" width="1220" height="24.65"/>
            </clipPath>
<clipPath id="terminal-line-2">
    <rect x="0" y="50.3" width="1220" height="24.65"/>
            </clipPath>
<clipPath id="terminal-line-3">
    <rect x="0" y="74.7" width="1220" height="24.65"/>
            </clipPath>
<clipPath id="terminal-line-4">
    <rect x="0" y="99.1" width="1220" height="24.65"/>
            </clipPath>
<clipPath id="terminal-line-5">
    <rect x="0" y="123.5" width="1220" height="24.65"/>
            </clipPath>
<clipPath id="terminal-line-6">
    <rect x="0" y="147.9" width="1220" height="24.65"/>
            </clipPath>
<clipPath id="terminal-line-7">
    <rect x="0" y="172.3" width="1220" height="24.65"/>
            </clipPath>
<clipPath id="terminal-line-8">
    <rect x="0" y="196.7" width="1220" height="24.65"/>
            </clipPath>
<clipPath id="terminal-line-9">
    <rect x="0" y="221.1" width="1220" height="24.65"/>
            </clipPath>
<clipPath id="terminal-line-10">
    <rect x="0" y="245.5" width="1220" height="24.65"/>
            </clipPath>
<clipPath id="terminal-line-11">
    <rect x="0" y="269.9" width="1220" height="24.65"/>
            </clipPath>
<clipPath id="terminal-line-12">
    <rect x="0" y="294.3" width="1220" height="24.65"/>
            </clipPath>
<clipPath id="terminal-line-13">
    <rect x="0" y="318.7" width="1220" height="24.65"/>
            </clipPath>
<clipPath id="terminal-line-14">
    <rect x="0" y="343.1" width="1220" height="24.65"/>
            </clipPath>
<clipPath id="terminal-line-15">
    <rect x="0" y="367.5" width="1220" height="24.65"/>
            </clipPath>
<clipPath id="terminal-line-16">
    <rect x="0" y="391.9" width="1220" height="24.65"/>
            </clipPath>
<clipPath id="terminal-line-17">
    <rect x="0" y="416.3" width="1220" height="24.65"/>
            </clipPath>
<clipPath id="terminal-line-18">
    <rect x="0" y="440.7" width="1220" height="24.65"/>
            </clipPath>
<clipPath id="terminal-line-19">
    <rect x="0" y="465.1" width="1220" height="24.65"/>
            </clipPath>
<clipPath id="terminal-line-20">
    <rect x="0" y="489.5" width="1220" height="24.65"/>
            </clipPath>
<clipPath id="terminal-line-21">
    <rect x="0" y="513.9" width="1220" height="24.65"/>
            </clipPath>
<clipPath id="terminal-line-22">
    <rect x="0" y="538.3" width="1220" height="24.65"/>
            </clipPath>
<clipPath id="terminal-line-23">
    <rect x="0" y="562.7" width="1220" height="24.65"/>
            </clipPath>
<clipPath id="terminal-line-24">
    <rect x="0" y="587.1" width="1220" height="24.65"/>
            </clipPath>
<clipPath id="terminal-line-25">
    <rect x="0" y="611.5" width="1220" height="24.65"/>
            </clipPath>
<clipPath id="terminal-line-26">
    <rect x="0" y="635.9" width="1220" height="24.65"/>
            </clipPath>
<clipPath id="terminal-line-27">
    <rect x="0" y="660.3" width="1220" height="24.65"/>
            </clipPath>
<clipPath id="terminal-line-28">
    <rect x="0" y="684.7" width="1220" height="24.65"/>
            </clipPath>
    </defs>

    <rect fill="#292929" stroke="rgba(255,255,255,0.35)" stroke-width="1" x="1" y="1" width="1236" height="780" rx="8"/><text class="terminal-title" fill="#c5c8c6" text-anchor="middle" x="618" y="27">token-slayer</text>
            <g transform="translate(26,22)">
            <circle cx="0" cy="0" r="7" fill="#ff5f57"/>
            <circle cx="22" cy="0" r="7" fill="#febc2e"/>
            <circle cx="44" cy="0" r="7" fill="#28c840"/>
            </g>
        
    <g transform="translate(9, 41)" clip-path="url(#terminal-clip-terminal)">
    <rect fill="#242f38" x="0" y="1.5" width="12.2" height="24.65" shape-rendering="crispEdges"/><rect fill="#242f38" x="12.2" y="1.5" width="12.2" height="24.65" shape-rendering="crispEdges"/><rect fill="#242f38" x="24.4" y="1.5" width="61" height="24.65" shape-rendering="crispEdges"/><rect fill="#242f38" x="85.4" y="1.5" width="12.2" height="24.65" shape-rendering="crispEdges"/><rect fill="#242f38" x="97.6" y="1.5" width="305" height="24.65" shape-rendering="crispEdges"/><rect fill="#242f38" x="402.6" y="1.5" width="146.4" height="24.65" shape-rendering="crispEdges"/><rect fill="#242f38" x="549" y="1.5" width="36.6" height="24.65" shape-rendering="crispEdges"/><rect fill="#242f38" x="585.6" y="1.5" width="195.2" height="24.65" shape-rendering="crispEdges"/><rect fill="#242f38" x="780.8" y="1.5" width="317.2" height="24.65" shape-rendering="crispEdges"/><rect fill="#2c363f" x="1098" y="1.5" width="12.2" height="24.65" shape-rendering="crispEdges"/><rect fill="#2c363f" x="1110.2" y="1.5" width="97.6" height="24.65" shape-rendering="crispEdges"/><rect fill="#2c363f" x="1207.8" y="1.5" width="12.2" height="24.65" shape-rendering="crispEdges"/><rect fill="#2d3740" x="0" y="25.9" width="134.2" height="24.65" shape-rendering="crispEdges"/><rect fill="#2d3740" x="134.2" y="25.9" width="195.2" height="24.65" shape-rendering="crispEdges"/><rect fill="#2d3740" x="329.4" y="25.9" width="158.6" height="24.65" shape-rendering="crispEdges"/><rect fill="#121212" x="488" y="25.9" width="12.2" height="24.65" shape-rendering="crispEdges"/><rect fill="#121212" x="500.2" y="25.9" width="719.8" height="24.65" shape-rendering="crispEdges"/><rect fill="#272727" x="0" y="50.3" width="134.2" height="24.65" shape-rendering="crispEdges"/><rect fill="#272727" x="134.2" y="50.3" width="12.2" height="24.65" shape-rendering="crispEdges"/><rect fill="#272727" x="146.4" y="50.3" width="122" height="24.65" shape-rendering="crispEdges"/><rect fill="#272727" x="268.4" y="50.3" width="61" height="24.65" shape-rendering="crispEdges"/><rect fill="#272727" x="329.4" y="50.3" width="12.2" height="24.65" shape-rendering="crispEdges"/><rect fill="#272727" x="341.6" y="50.3" width="122" height="24.65" shape-rendering="crispEdges"/><rect fill="#272727" x="463.6" y="50.3" width="24.4" height="24.65" shape-rendering="crispEdges"/><rect fill="#121212" x="488" y="50.3" width="12.2" height="24.65" shape-rendering="crispEdges"/><rect fill="#121212" x="500.2" y="50.3" width="24.4" height="24.65" shape-rendering="crispEdges"/><rect fill="#121212" x="524.6" y="50.3" width="0" height="24.65" shape-rendering="crispEdges"/><rect fill="#121212" x="524.6" y="50.3" width="695.4" height="24.65" shape-rendering="crispEdges"/><rect fill="#0178d4" x="0" y="74.7" width="134.2" height="24.65" shape-rendering="crispEdges"/><rect fill="#0178d4" x="134.2" y="74.7" width="195.2" height="24.65" shape-rendering="crispEdges"/><rect fill="#0178d4" x="329.4" y="74.7" width="158.6" height="24.65" shape-rendering="crispEdges"/><rect fill="#121212" x="488" y="74.7" width="12.2" height="24.65" shape-rendering="crispEdges"/><rect fill="#121212" x="500.2" y="74.7" width="24.4" height="24.65" shape-rendering="crispEdges"/><rect fill="#121212" x="524.6" y="74.7" width="24.4" height="24.65" shape-rendering="crispEdges"/><rect fill="#121212" x="549" y="74.7" width="12.2" height="24.65" shape-rendering="crispEdges"/><rect fill="#121212" x="561.2" y="74.7" width="12.2" height="24.65" shape-rendering="crispEdges"/><rect fill="#121212" x="573.4" y="74.7" width="61" height="24.65" shape-rendering="crispEdges"/><rect fill="#121212" x="634.4" y="74.7" width="24.4" height="24.65" shape-rendering="crispEdges"/><rect fill="#121212" x="658.8" y="74.7" width="561.2" height="24.65" shape-rendering="crispEdges"/><rect fill="#272727" x="0" y="99.1" width="488" height="24.65" shape-rendering="crispEdges"/><rect fill="#121212" x="488" y="99.1" width="12.2" height="24.65" shape-rendering="crispEdges"/><rect fill="#121212" x="500.2" y="99.1" width="24.4" height="24.65" shape-rendering="crispEdges"/><rect fill="#121212" x="524.6" y="99.1" width="488" height="24.65" shape-rendering="crispEdges"/><rect fill="#121212" x="1012.6" y="99.1" width="207.4" height="24.65" shape-rendering="crispEdges"/><rect fill="#272727" x="0" y="123.5" width="488" height="24.65" shape-rendering="crispEdges"/><rect fill="#121212" x="488" y="123.5" width="12.2" height="24.65" shape-rendering="crispEdges"/><rect fill="#121212" x="500.2" y="123.5" width="24.4" height="24.65" shape-rendering="crispEdges"/><rect fill="#121212" x="524.6" y="123.5" width="0" height="24.65" shape-rendering="crispEdges"/><rect fill="#121212" x="524.6" y="123.5" width="695.4" height="24.65" shape-rendering="crispEdges"/><rect fill="#272727" x="0" y="147.9" width="488" height="24.65" shape-rendering="crispEdges"/><rect fill="#121212" x="488" y="147.9" width="12.2" height="24.65" shape-rendering="crispEdges"/><rect fill="#121212" x="500.2" y="147.9" width="24.4" height="24.65" shape-rendering="crispEdges"/><rect fill="#121212" x="524.6" y="147.9" width="24.4" height="24.65" shape-rendering="crispEdges"/><rect fill="#121212" x="549" y="147.9" width="146.4" height="24.65" shape-rendering="crispEdges"/><rect fill="#121212" x="695.4" y="147.9" width="524.6" height="24.65" shape-rendering="crispEdges"/><rect fill="#272727" x="0" y="172.3" width="488" height="24.65" shape-rendering="crispEdges"/><rect fill="#121212" x="488" y="172.3" width="12.2" height="24.65" shape-rendering="crispEdges"/><rect fill="#121212" x="500.2" y="172.3" width="24.4" height="24.65" shape-rendering="crispEdges"/><rect fill="#121212" x="524.6" y="172.3" width="24.4" height="24.65" shape-rendering="crispEdges"/><rect fill="#121212" x="549" y="172.3" width="292.8" height="24.65" shape-rendering="crispEdges"/><rect fill="#121212" x="841.8" y="172.3" width="24.4" height="24.65" shape-rendering="crispEdges"/><rect fill="#121212" x="866.2" y="172.3" width="48.8" height="24.65" shape-rendering="crispEdges"/><rect fill="#121212" x="915" y="172.3" width="305" height="24.65" shape-rendering="crispEdges"/><rect fill="#272727" x="0" y="196.7" width="488" height="24.65" shape-rendering="crispEdges"/><rect fill="#121212" x="488" y="196.7" width="12.2" height="24.65" shape-rendering="crispEdges"/><rect fill="#121212" x="500.2" y="196.7" width="24.4" height="24.65" shape-rendering="crispEdges"/><rect fill="#121212" x="524.6" y="196.7" width="24.4" height="24.65" shape-rendering="crispEdges"/><rect fill="#121212" x="549" y="196.7" width="73.2" height="24.65" shape-rendering="crispEdges"/><rect fill="#121212" x="622.2" y="196.7" width="24.4" height="24.65" shape-rendering="crispEdges"/><rect fill="#121212" x="646.6" y="196.7" width="61" height="24.65" shape-rendering="crispEdges"/><rect fill="#121212" x="707.6" y="196.7" width="24.4" height="24.65" shape-rendering="crispEdges"/><rect fill="#121212" x="732" y="196.7" width="158.6" height="24.65" shape-rendering="crispEdges"/><rect fill="#121212" x="890.6" y="196.7" width="329.4" height="24.65" shape-rendering="crispEdges"/><rect fill="#272727" x="0" y="221.1" width="488" height="24.65" shape-rendering="crispEdges"/><rect fill="#121212" x="488" y="221.1" width="12.2" height="24.65" shape-rendering="crispEdges"/><rect fill="#121212" x="500.2" y="221.1" width="24.4" height="24.65" shape-rendering="crispEdges"/><rect fill="#121212" x="524.6" y="221.1" width="0" height="24.65" shape-rendering="crispEdges"/><rect fill="#121212" x="524.6" y="221.1" width="695.4" height="24.65" shape-rendering="crispEdges"/><rect fill="#272727" x="0" y="245.5" width="488" height="24.65" shape-rendering="crispEdges"/><rect fill="#121212" x="488" y="245.5" width="12.2" height="24.65" shape-rendering="crispEdges"/><rect fill="#121212" x="500.2" y="245.5" width="24.4" height="24.65" shape-rendering="crispEdges"/><rect fill="#121212" x="524.6" y="245.5" width="24.4" height="24.65" shape-rendering="crispEdges"/><rect fill="#121212" x="549" y="245.5" width="146.4" height="24.65" shape-rendering="crispEdges"/><rect fill="#121212" x="695.4" y="245.5" width="524.6" height="24.65" shape-rendering="crispEdges"/><rect fill="#272727" x="0" y="269.9" width="488" height="24.65" shape-rendering="crispEdges"/><rect fill="#121212" x="488" y="269.9" width="12.2" height="24.65" shape-rendering="crispEdges"/><rect fill="#121212" x="500.2" y="269.9" width="24.4" height="24.65" shape-rendering="crispEdges"/><rect fill="#121212" x="524.6" y="269.9" width="24.4" height="24.65" shape-rendering="crispEdges"/><rect fill="#121212" x="549" y="269.9" width="292.8" height="24.65" shape-rendering="crispEdges"/><rect fill="#121212" x="841.8" y="269.9" width="24.4" height="24.65" shape-rendering="crispEdges"/><rect fill="#121212" x="866.2" y="269.9" width="48.8" height="24.65" shape-rendering="crispEdges"/><rect fill="#121212" x="915" y="269.9" width="305" height="24.65" shape-rendering="crispEdges"/><rect fill="#272727" x="0" y="294.3" width="488" height="24.65" shape-rendering="crispEdges"/><rect fill="#121212" x="488" y="294.3" width="12.2" height="24.65" shape-rendering="crispEdges"/><rect fill="#121212" x="500.2" y="294.3" width="24.4" height="24.65" shape-rendering="crispEdges"/><rect fill="#121212" x="524.6" y="294.3" width="24.4" height="24.65" shape-rendering="crispEdges"/><rect fill="#121212" x="549" y="294.3" width="73.2" height="24.65" shape-rendering="crispEdges"/><rect fill="#121212" x="622.2" y="294.3" width="24.4" height="24.65" shape-rendering="crispEdges"/><rect fill="#121212" x="646.6" y="294.3" width="109.8" height="24.65" shape-rendering="crispEdges"/><rect fill="#121212" x="756.4" y="294.3" width="24.4" height="24.65" shape-rendering="crispEdges"/><rect fill="#121212" x="780.8" y="294.3" width="158.6" height="24.65" shape-rendering="crispEdges"/><rect fill="#121212" x="939.4" y="294.3" width="280.6" height="24.65" shape-rendering="crispEdges"/><rect fill="#272727" x="0" y="318.7" width="488" height="24.65" shape-rendering="crispEdges"/><rect fill="#121212" x="488" y="318.7" width="12.2" height="24.65" shape-rendering="crispEdges"/><rect fill="#121212" x="500.2" y="318.7" width="24.4" height="24.65" shape-rendering="crispEdges"/><rect fill="#121212" x="524.6" y="318.7" width="0" height="24.65" shape-rendering="crispEdges"/><rect fill="#121212" x="524.6" y="318.7" width="695.4" height="24.65" shape-rendering="crispEdges"/><rect fill="#272727" x="0" y="343.1" width="488" height="24.65" shape-rendering="crispEdges"/><rect fill="#121212" x="488" y="343.1" width="12.2" height="24.65" shape-rendering="crispEdges"/><rect fill="#121212" x="500.2" y="343.1" width="24.4" height="24.65" shape-rendering="crispEdges"/><rect fill="#121212" x="524.6" y="343.1" width="671" height="24.65" shape-rendering="crispEdges"/><rect fill="#121212" x="1195.6" y="343.1" width="24.4" height="24.65" shape-rendering="crispEdges"/><rect fill="#272727" x="0" y="367.5" width="488" height="24.65" shape-rendering="crispEdges"/><rect fill="#121212" x="488" y="367.5" width="12.2" height="24.65" shape-rendering="crispEdges"/><rect fill="#121212" x="500.2" y="367.5" width="24.4" height="24.65" shape-rendering="crispEdges"/><rect fill="#121212" x="524.6" y="367.5" width="671" height="24.65" shape-rendering="crispEdges"/><rect fill="#121212" x="1195.6" y="367.5" width="24.4" height="24.65" shape-rendering="crispEdges"/><rect fill="#272727" x="0" y="391.9" width="488" height="24.65" shape-rendering="crispEdges"/><rect fill="#121212" x="488" y="391.9" width="12.2" height="24.65" shape-rendering="crispEdges"/><rect fill="#121212" x="500.2" y="391.9" width="24.4" height="24.65" shape-rendering="crispEdges"/><rect fill="#121212" x="524.6" y="391.9" width="671" height="24.65" shape-rendering="crispEdges"/><rect fill="#121212" x="1195.6" y="391.9" width="24.4" height="24.65" shape-rendering="crispEdges"/><rect fill="#272727" x="0" y="416.3" width="488" height="24.65" shape-rendering="crispEdges"/><rect fill="#121212" x="488" y="416.3" width="12.2" height="24.65" shape-rendering="crispEdges"/><rect fill="#121212" x="500.2" y="416.3" width="24.4" height="24.65" shape-rendering="crispEdges"/><rect fill="#121212" x="524.6" y="416.3" width="671" height="24.65" shape-rendering="crispEdges"/><rect fill="#121212" x="1195.6" y="416.3" width="24.4" height="24.65" shape-rendering="crispEdges"/><rect fill="#272727" x="0" y="440.7" width="488" height="24.65" shape-rendering="crispEdges"/><rect fill="#121212" x="488" y="440.7" width="12.2" height="24.65" shape-rendering="crispEdges"/><rect fill="#121212" x="500.2" y="440.7" width="24.4" height="24.65" shape-rendering="crispEdges"/><rect fill="#121212" x="524.6" y="440.7" width="671" height="24.65" shape-rendering="crispEdges"/><rect fill="#121212" x="1195.6" y="440.7" width="24.4" height="24.65" shape-rendering="crispEdges"/><rect fill="#272727" x="0" y="465.1" width="488" height="24.65" shape-rendering="crispEdges"/><rect fill="#121212" x="488" y="465.1" width="12.2" height="24.65" shape-rendering="crispEdges"/><rect fill="#121212" x="500.2" y="465.1" width="24.4" height="24.65" shape-rendering="crispEdges"/><rect fill="#121212" x="524.6" y="465.1" width="671" height="24.65" shape-rendering="crispEdges"/><rect fill="#121212" x="1195.6" y="465.1" width="24.4" height="24.65" shape-rendering="crispEdges"/><rect fill="#272727" x="0" y="489.5" width="488" height="24.65" shape-rendering="crispEdges"/><rect fill="#121212" x="488" y="489.5" width="12.2" height="24.65" shape-rendering="crispEdges"/><rect fill="#121212" x="500.2" y="489.5" width="24.4" height="24.65" shape-rendering="crispEdges"/><rect fill="#121212" x="524.6" y="489.5" width="671" height="24.65" shape-rendering="crispEdges"/><rect fill="#121212" x="1195.6" y="489.5" width="24.4" height="24.65" shape-rendering="crispEdges"/><rect fill="#272727" x="0" y="513.9" width="488" height="24.65" shape-rendering="crispEdges"/><rect fill="#121212" x="488" y="513.9" width="12.2" height="24.65" shape-rendering="crispEdges"/><rect fill="#121212" x="500.2" y="513.9" width="24.4" height="24.65" shape-rendering="crispEdges"/><rect fill="#121212" x="524.6" y="513.9" width="671" height="24.65" shape-rendering="crispEdges"/><rect fill="#121212" x="1195.6" y="513.9" width="24.4" height="24.65" shape-rendering="crispEdges"/><rect fill="#272727" x="0" y="538.3" width="488" height="24.65" shape-rendering="crispEdges"/><rect fill="#121212" x="488" y="538.3" width="12.2" height="24.65" shape-rendering="crispEdges"/><rect fill="#121212" x="500.2" y="538.3" width="24.4" height="24.65" shape-rendering="crispEdges"/><rect fill="#121212" x="524.6" y="538.3" width="671" height="24.65" shape-rendering="crispEdges"/><rect fill="#121212" x="1195.6" y="538.3" width="24.4" height="24.65" shape-rendering="crispEdges"/><rect fill="#272727" x="0" y="562.7" width="488" height="24.65" shape-rendering="crispEdges"/><rect fill="#121212" x="488" y="562.7" width="12.2" height="24.65" shape-rendering="crispEdges"/><rect fill="#121212" x="500.2" y="562.7" width="24.4" height="24.65" shape-rendering="crispEdges"/><rect fill="#121212" x="524.6" y="562.7" width="671" height="24.65" shape-rendering="crispEdges"/><rect fill="#121212" x="1195.6" y="562.7" width="24.4" height="24.65" shape-rendering="crispEdges"/><rect fill="#272727" x="0" y="587.1" width="488" height="24.65" shape-rendering="crispEdges"/><rect fill="#121212" x="488" y="587.1" width="12.2" height="24.65" shape-rendering="crispEdges"/><rect fill="#121212" x="500.2" y="587.1" width="24.4" height="24.65" shape-rendering="crispEdges"/><rect fill="#121212" x="524.6" y="587.1" width="671" height="24.65" shape-rendering="crispEdges"/><rect fill="#121212" x="1195.6" y="587.1" width="24.4" height="24.65" shape-rendering="crispEdges"/><rect fill="#272727" x="0" y="611.5" width="488" height="24.65" shape-rendering="crispEdges"/><rect fill="#121212" x="488" y="611.5" width="12.2" height="24.65" shape-rendering="crispEdges"/><rect fill="#121212" x="500.2" y="611.5" width="24.4" height="24.65" shape-rendering="crispEdges"/><rect fill="#121212" x="524.6" y="611.5" width="671" height="24.65" shape-rendering="crispEdges"/><rect fill="#121212" x="1195.6" y="611.5" width="24.4" height="24.65" shape-rendering="crispEdges"/><rect fill="#272727" x="0" y="635.9" width="488" height="24.65" shape-rendering="crispEdges"/><rect fill="#121212" x="488" y="635.9" width="12.2" height="24.65" shape-rendering="crispEdges"/><rect fill="#121212" x="500.2" y="635.9" width="24.4" height="24.65" shape-rendering="crispEdges"/><rect fill="#121212" x="524.6" y="635.9" width="671" height="24.65" shape-rendering="crispEdges"/><rect fill="#121212" x="1195.6" y="635.9" width="24.4" height="24.65" shape-rendering="crispEdges"/><rect fill="#272727" x="0" y="660.3" width="488" height="24.65" shape-rendering="crispEdges"/><rect fill="#121212" x="488" y="660.3" width="12.2" height="24.65" shape-rendering="crispEdges"/><rect fill="#121212" x="500.2" y="660.3" width="24.4" height="24.65" shape-rendering="crispEdges"/><rect fill="#121212" x="524.6" y="660.3" width="671" height="24.65" shape-rendering="crispEdges"/><rect fill="#121212" x="1195.6" y="660.3" width="24.4" height="24.65" shape-rendering="crispEdges"/><rect fill="#003054" x="0" y="684.7" width="378.2" height="24.65" shape-rendering="crispEdges"/><rect fill="#000000" x="378.2" y="684.7" width="12.2" height="24.65" shape-rendering="crispEdges"/><rect fill="#000000" x="390.4" y="684.7" width="97.6" height="24.65" shape-rendering="crispEdges"/><rect fill="#121212" x="488" y="684.7" width="12.2" height="24.65" shape-rendering="crispEdges"/><rect fill="#121212" x="500.2" y="684.7" width="719.8" height="24.65" shape-rendering="crispEdges"/><rect fill="#242f38" x="0" y="709.1" width="36.6" height="24.65" shape-rendering="crispEdges"/><rect fill="#242f38" x="36.6" y="709.1" width="24.4" height="24.65" shape-rendering="crispEdges"/><rect fill="#242f38" x="61" y="709.1" width="36.6" height="24.65" shape-rendering="crispEdges"/><rect fill="#242f38" x="97.6" y="709.1" width="24.4" height="24.65" shape-rendering="crispEdges"/><rect fill="#242f38" x="122" y="709.1" width="36.6" height="24.65" shape-rendering="crispEdges"/><rect fill="#242f38" x="158.6" y="709.1" width="48.8" height="24.65" shape-rendering="crispEdges"/><rect fill="#242f38" x="207.4" y="709.1" width="36.6" height="24.65" shape-rendering="crispEdges"/><rect fill="#242f38" x="244" y="709.1" width="85.4" height="24.65" shape-rendering="crispEdges"/><rect fill="#242f38" x="329.4" y="709.1" width="36.6" height="24.65" shape-rendering="crispEdges"/><rect fill="#242f38" x="366" y="709.1" width="85.4" height="24.65" shape-rendering="crispEdges"/><rect fill="#242f38" x="451.4" y="709.1" width="36.6" height="24.65" shape-rendering="crispEdges"/><rect fill="#242f38" x="488" y="709.1" width="97.6" height="24.65" shape-rendering="crispEdges"/><rect fill="#242f38" x="585.6" y="709.1" width="36.6" height="24.65" shape-rendering="crispEdges"/><rect fill="#242f38" x="622.2" y="709.1" width="109.8" height="24.65" shape-rendering="crispEdges"/><rect fill="#242f38" x="732" y="709.1" width="36.6" height="24.65" shape-rendering="crispEdges"/><rect fill="#242f38" x="768.6" y="709.1" width="61" height="24.65" shape-rendering="crispEdges"/><rect fill="#242f38" x="829.6" y="709.1" width="244" height="24.65" shape-rendering="crispEdges"/><rect fill="#242f38" x="1073.6" y="709.1" width="12.2" height="24.65" shape-rendering="crispEdges"/><rect fill="#242f38" x="1085.8" y="709.1" width="24.4" height="24.65" shape-rendering="crispEdges"/><rect fill="#242f38" x="1110.2" y="709.1" width="97.6" height="24.65" shape-rendering="crispEdges"/><rect fill="#242f38" x="1207.8" y="709.1" width="12.2" height="24.65" shape-rendering="crispEdges"/>
    <g class="terminal-matrix">
    <text class="terminal-r2" x="12.2" y="20" textLength="12.2" clip-path="url(#terminal-line-0)">⭘</text><text class="terminal-r2" x="402.6" y="20" textLength="146.4" clip-path="url(#terminal-line-0)">token-slayer</text><text class="terminal-r3" x="549" y="20" textLength="36.6" clip-path="url(#terminal-line-0)">&#160;—&#160;</text><text class="terminal-r3" x="585.6" y="20" textLength="195.2" clip-path="url(#terminal-line-0)">strategy:&#160;manual</text><text class="terminal-r4" x="1110.2" y="20" textLength="97.6" clip-path="url(#terminal-line-0)">12:00:00</text><text class="terminal-r1" x="1220" y="20" textLength="12.2" clip-path="url(#terminal-line-0)">
</text><text class="terminal-r5" x="0" y="44.4" textLength="134.2" clip-path="url(#terminal-line-1)">&#160;&#160;&#160;Account&#160;</text><text class="terminal-r5" x="134.2" y="44.4" textLength="195.2" clip-path="url(#terminal-line-1)">&#160;Session&#160;5h&#160;&#160;&#160;&#160;&#160;</text><text class="terminal-r5" x="329.4" y="44.4" textLength="158.6" clip-path="url(#terminal-line-1)">&#160;Weekly&#160;7d&#160;&#160;&#160;</text><text class="terminal-r6" x="488" y="44.4" textLength="12.2" clip-path="url(#terminal-line-1)">│</text><text class="terminal-r1" x="1220" y="44.4" textLength="12.2" clip-path="url(#terminal-line-1)">
</text><text class="terminal-r2" x="0" y="68.8" textLength="134.2" clip-path="url(#terminal-line-2)">&#160;&#160;&#160;clone&#160;&#160;&#160;</text><text class="terminal-r7" x="146.4" y="68.8" textLength="122" clip-path="url(#terminal-line-2)">████░░░░░░</text><text class="terminal-r2" x="268.4" y="68.8" textLength="61" clip-path="url(#terminal-line-2)">&#160;42%&#160;</text><text class="terminal-r7" x="341.6" y="68.8" textLength="122" clip-path="url(#terminal-line-2)">█░░░░░░░░░</text><text class="terminal-r2" x="463.6" y="68.8" textLength="24.4" clip-path="url(#terminal-line-2)">&#160;1</text><text class="terminal-r6" x="488" y="68.8" textLength="12.2" clip-path="url(#terminal-line-2)">│</text><text class="terminal-r1" x="1220" y="68.8" textLength="12.2" clip-path="url(#terminal-line-2)">
</text><text class="terminal-r8" x="0" y="93.2" textLength="134.2" clip-path="url(#terminal-line-3)">&#160;●&#160;oedev&#160;&#160;&#160;</text><text class="terminal-r8" x="134.2" y="93.2" textLength="195.2" clip-path="url(#terminal-line-3)">&#160;████░░░░░░&#160;42%&#160;</text><text class="terminal-r8" x="329.4" y="93.2" textLength="158.6" clip-path="url(#terminal-line-3)">&#160;█░░░░░░░░░&#160;1</text><text class="terminal-r6" x="488" y="93.2" textLength="12.2" clip-path="url(#terminal-line-3)">│</text><text class="terminal-r9" x="549" y="93.2" textLength="12.2" clip-path="url(#terminal-line-3)">●</text><text class="terminal-r5" x="573.4" y="93.2" textLength="61" clip-path="url(#terminal-line-3)">oedev</text><text class="terminal-r1" x="1220" y="93.2" textLength="12.2" clip-path="url(#terminal-line-3)">
</text><text class="terminal-r6" x="488" y="117.6" textLength="12.2" clip-path="url(#terminal-line-4)">│</text><text class="terminal-r2" x="524.6" y="117.6" textLength="488" clip-path="url(#terminal-line-4)">&#160;&#160;──────────────────────────────────────</text><text class="terminal-r1" x="1220" y="117.6" textLength="12.2" clip-path="url(#terminal-line-4)">
</text><text class="terminal-r6" x="488" y="142" textLength="12.2" clip-path="url(#terminal-line-5)">│</text><text class="terminal-r1" x="1220" y="142" textLength="12.2" clip-path="url(#terminal-line-5)">
</text><text class="terminal-r6" x="488" y="166.4" textLength="12.2" clip-path="url(#terminal-line-6)">│</text><text class="terminal-r10" x="549" y="166.4" textLength="146.4" clip-path="url(#terminal-line-6)">Session&#160;(5h)</text><text class="terminal-r1" x="1220" y="166.4" textLength="12.2" clip-path="url(#terminal-line-6)">
</text><text class="terminal-r6" x="488" y="190.8" textLength="12.2" clip-path="url(#terminal-line-7)">│</text><text class="terminal-r11" x="549" y="190.8" textLength="292.8" clip-path="url(#terminal-line-7)">██████████░░░░░░░░░░░░░░</text><text class="terminal-r5" x="866.2" y="190.8" textLength="48.8" clip-path="url(#terminal-line-7)">&#160;42%</text><text class="terminal-r1" x="1220" y="190.8" textLength="12.2" clip-path="url(#terminal-line-7)">
</text><text class="terminal-r6" x="488" y="215.2" textLength="12.2" clip-path="url(#terminal-line-8)">│</text><text class="terminal-r10" x="549" y="215.2" textLength="73.2" clip-path="url(#terminal-line-8)">Resets</text><text class="terminal-r12" x="646.6" y="215.2" textLength="61" clip-path="url(#terminal-line-8)">00:46</text><text class="terminal-r10" x="732" y="215.2" textLength="158.6" clip-path="url(#terminal-line-8)">in&#160;96064d&#160;19h</text><text class="terminal-r1" x="1220" y="215.2" textLength="12.2" clip-path="url(#terminal-line-8)">
</text><text class="terminal-r6" x="488" y="239.6" textLength="12.2" clip-path="url(#terminal-line-9)">│</text><text class="terminal-r1" x="1220" y="239.6" textLength="12.2" clip-path="url(#terminal-line-9)">
</text><text class="terminal-r6" x="488" y="264" textLength="12.2" clip-path="url(#terminal-line-10)">│</text><text class="terminal-r10" x="549" y="264" textLength="146.4" clip-path="url(#terminal-line-10)">Weekly&#160;&#160;(7d)</text><text class="terminal-r1" x="1220" y="264" textLength="12.2" clip-path="url(#terminal-line-10)">
</text><text class="terminal-r6" x="488" y="288.4" textLength="12.2" clip-path="url(#terminal-line-11)">│</text><text class="terminal-r11" x="549" y="288.4" textLength="292.8" clip-path="url(#terminal-line-11)">████░░░░░░░░░░░░░░░░░░░░</text><text class="terminal-r5" x="866.2" y="288.4" textLength="48.8" clip-path="url(#terminal-line-11)">&#160;18%</text><text class="terminal-r1" x="1220" y="288.4" textLength="12.2" clip-path="url(#terminal-line-11)">
</text><text class="terminal-r6" x="488" y="312.8" textLength="12.2" clip-path="url(#terminal-line-12)">│</text><text class="terminal-r10" x="549" y="312.8" textLength="73.2" clip-path="url(#terminal-line-12)">Resets</text><text class="terminal-r12" x="646.6" y="312.8" textLength="109.8" clip-path="url(#terminal-line-12)">Sun&#160;00:46</text><text class="terminal-r10" x="780.8" y="312.8" textLength="158.6" clip-path="url(#terminal-line-12)">in&#160;96064d&#160;19h</text><text class="terminal-r1" x="1220" y="312.8" textLength="12.2" clip-path="url(#terminal-line-12)">
</text><text class="terminal-r6" x="488" y="337.2" textLength="12.2" clip-path="url(#terminal-line-13)">│</text><text class="terminal-r1" x="1220" y="337.2" textLength="12.2" clip-path="url(#terminal-line-13)">
</text><text class="terminal-r6" x="488" y="361.6" textLength="12.2" clip-path="url(#terminal-line-14)">│</text><text class="terminal-r1" x="1220" y="361.6" textLength="12.2" clip-path="url(#terminal-line-14)">
</text><text class="terminal-r6" x="488" y="386" textLength="12.2" clip-path="url(#terminal-line-15)">│</text><text class="terminal-r1" x="1220" y="386" textLength="12.2" clip-path="url(#terminal-line-15)">
</text><text class="terminal-r6" x="488" y="410.4" textLength="12.2" clip-path="url(#terminal-line-16)">│</text><text class="terminal-r1" x="1220" y="410.4" textLength="12.2" clip-path="url(#terminal-line-16)">
</text><text class="terminal-r6" x="488" y="434.8" textLength="12.2" clip-path="url(#terminal-line-17)">│</text><text class="terminal-r1" x="1220" y="434.8" textLength="12.2" clip-path="url(#terminal-line-17)">
</text><text class="terminal-r6" x="488" y="459.2" textLength="12.2" clip-path="url(#terminal-line-18)">│</text><text class="terminal-r1" x="1220" y="459.2" textLength="12.2" clip-path="url(#terminal-line-18)">
</text><text class="terminal-r6" x="488" y="483.6" textLength="12.2" clip-path="url(#terminal-line-19)">│</text><text class="terminal-r1" x="1220" y="483.6" textLength="12.2" clip-path="url(#terminal-line-19)">
</text><text class="terminal-r6" x="488" y="508" textLength="12.2" clip-path="url(#terminal-line-20)">│</text><text class="terminal-r1" x="1220" y="508" textLength="12.2" clip-path="url(#terminal-line-20)">
</text><text class="terminal-r6" x="488" y="532.4" textLength="12.2" clip-path="url(#terminal-line-21)">│</text><text class="terminal-r1" x="1220" y="532.4" textLength="12.2" clip-path="url(#terminal-line-21)">
</text><text class="terminal-r6" x="488" y="556.8" textLength="12.2" clip-path="url(#terminal-line-22)">│</text><text class="terminal-r1" x="1220" y="556.8" textLength="12.2" clip-path="url(#terminal-line-22)">
</text><text class="terminal-r6" x="488" y="581.2" textLength="12.2" clip-path="url(#terminal-line-23)">│</text><text class="terminal-r1" x="1220" y="581.2" textLength="12.2" clip-path="url(#terminal-line-23)">
</text><text class="terminal-r6" x="488" y="605.6" textLength="12.2" clip-path="url(#terminal-line-24)">│</text><text class="terminal-r1" x="1220" y="605.6" textLength="12.2" clip-path="url(#terminal-line-24)">
</text><text class="terminal-r6" x="488" y="630" textLength="12.2" clip-path="url(#terminal-line-25)">│</text><text class="terminal-r1" x="1220" y="630" textLength="12.2" clip-path="url(#terminal-line-25)">
</text><text class="terminal-r6" x="488" y="654.4" textLength="12.2" clip-path="url(#terminal-line-26)">│</text><text class="terminal-r1" x="1220" y="654.4" textLength="12.2" clip-path="url(#terminal-line-26)">
</text><text class="terminal-r6" x="488" y="678.8" textLength="12.2" clip-path="url(#terminal-line-27)">│</text><text class="terminal-r1" x="1220" y="678.8" textLength="12.2" clip-path="url(#terminal-line-27)">
</text><text class="terminal-r14" x="378.2" y="703.2" textLength="12.2" clip-path="url(#terminal-line-28)">▍</text><text class="terminal-r6" x="488" y="703.2" textLength="12.2" clip-path="url(#terminal-line-28)">│</text><text class="terminal-r1" x="1220" y="703.2" textLength="12.2" clip-path="url(#terminal-line-28)">
</text><text class="terminal-r15" x="0" y="727.6" textLength="36.6" clip-path="url(#terminal-line-29)">&#160;j&#160;</text><text class="terminal-r2" x="36.6" y="727.6" textLength="24.4" clip-path="url(#terminal-line-29)">↓&#160;</text><text class="terminal-r15" x="61" y="727.6" textLength="36.6" clip-path="url(#terminal-line-29)">&#160;k&#160;</text><text class="terminal-r2" x="97.6" y="727.6" textLength="24.4" clip-path="url(#terminal-line-29)">↑&#160;</text><text class="terminal-r15" x="122" y="727.6" textLength="36.6" clip-path="url(#terminal-line-29)">&#160;g&#160;</text><text class="terminal-r2" x="158.6" y="727.6" textLength="48.8" clip-path="url(#terminal-line-29)">Top&#160;</text><text class="terminal-r15" x="207.4" y="727.6" textLength="36.6" clip-path="url(#terminal-line-29)">&#160;G&#160;</text><text class="terminal-r2" x="244" y="727.6" textLength="85.4" clip-path="url(#terminal-line-29)">Bottom&#160;</text><text class="terminal-r15" x="329.4" y="727.6" textLength="36.6" clip-path="url(#terminal-line-29)">&#160;s&#160;</text><text class="terminal-r2" x="366" y="727.6" textLength="85.4" clip-path="url(#terminal-line-29)">Switch&#160;</text><text class="terminal-r15" x="451.4" y="727.6" textLength="36.6" clip-path="url(#terminal-line-29)">&#160;r&#160;</text><text class="terminal-r2" x="488" y="727.6" textLength="97.6" clip-path="url(#terminal-line-29)">Refresh&#160;</text><text class="terminal-r15" x="585.6" y="727.6" textLength="36.6" clip-path="url(#terminal-line-29)">&#160;c&#160;</text><text class="terminal-r2" x="622.2" y="727.6" textLength="109.8" clip-path="url(#terminal-line-29)">Strategy&#160;</text><text class="terminal-r15" x="732" y="727.6" textLength="36.6" clip-path="url(#terminal-line-29)">&#160;q&#160;</text><text class="terminal-r2" x="768.6" y="727.6" textLength="61" clip-path="url(#terminal-line-29)">Quit&#160;</text><text class="terminal-r16" x="1073.6" y="727.6" textLength="12.2" clip-path="url(#terminal-line-29)">▏</text><text class="terminal-r15" x="1085.8" y="727.6" textLength="24.4" clip-path="url(#terminal-line-29)">^p</text><text class="terminal-r2" x="1110.2" y="727.6" textLength="97.6" clip-path="url(#terminal-line-29)">&#160;palette</text>
    </g>
    </g>
</svg>
